<?xml version="1.0"?>
<!--Icons from directory ""-->
<svg xmlns="http://www.w3.org/2000/svg" width="32" height="96" viewBox="0 0 32 96"><svg xmlns:xlink="http://www.w3.org/1999/xlink" id="fb" style="enable-background:new 0 0 486.392 486.392" xml:space="preserve" viewBox="0 0 486.392 486.392" version="1.1" y="0" x="0px" width="32" height="32">			<path d="m243.2 0c-134.31 0-243.2 108.89-243.2 243.2s108.89 243.2 243.2 243.2 243.2-108.89 243.2-243.2c-0.01-134.34-108.9-243.2-243.2-243.2zm62.86 243.16l-39.854 0.03-0.03 145.92h-54.689v-145.91h-36.48v-50.281l36.479-0.03-0.061-29.609c0-41.039 11.126-65.997 59.431-65.997h40.249v50.311h-25.171c-18.817 0-19.729 7.022-19.729 20.124l-0.061 25.171h45.234l-5.32 50.28z" fill="#010002"/></svg><svg xmlns:xlink="http://www.w3.org/1999/xlink" id="g" style="enable-background:new 0 0 486.392 486.392" xml:space="preserve" viewBox="0 0 486.392 486.392" version="1.1" y="32" x="0px" width="32" height="32">		<g fill="#010002">			<path d="m243.2 0c-134.31 0-243.2 108.89-243.2 243.2s108.89 243.2 243.2 243.2 243.2-108.89 243.2-243.2c-0.01-134.34-108.9-243.2-243.2-243.2zm-67.86 406.84c-53.837 0-99.254-21.918-99.254-56.938 0-35.537 41.434-69.858 95.272-69.828l16.811-0.152c-7.357-7.144-13.193-15.929-13.193-26.782 0-6.445 2.067-12.616 4.925-18.118l-8.968 0.304c-44.231 0-73.84-31.463-73.84-70.466 0-38.151 40.887-71.074 84.359-71.074h96.974l-21.766 15.686h-30.734c20.398 7.843 31.251 31.615 31.251 55.996 0 20.459-11.339 38.091-27.36 50.615-15.656 12.251-18.604 17.358-18.604 27.755 0 8.877 16.781 23.955 25.536 30.187 25.627 18.118 33.865 34.929 33.865 62.988 0 35.01-33.9 69.82-95.28 69.82zm189.45-193.47v60.708h-30.369v-60.708h-60.829v-30.977h60.829v-60.799h30.369v60.799h60.799v30.977h-60.8z"/>			<path d="m205.77 293.02c-7.357-2.371-15.473-3.8-24.137-3.891-37.209-0.395-70.527 22.678-70.527 50.433 0 28.332 26.873 51.861 64.082 51.861 52.317 0 70.527-22.131 70.527-50.402 0-3.405-0.426-6.749-1.186-10.001-4.06-16.05-18.56-23.98-38.75-38z"/>			<path d="m222.34 167.35c-4.317-32.771-28.059-59.097-53.017-59.857-24.958-0.73-41.708 24.35-37.391 57.181 4.317 32.801 28.059 60.009 53.047 60.738 24.93 0.76 41.71-25.23 37.36-58.06z"/>		</g></svg><svg xmlns:xlink="http://www.w3.org/1999/xlink" id="tw" style="enable-background:new 0 0 486.392 486.392" xml:space="preserve" viewBox="0 0 486.392 486.392" version="1.1" y="64" x="0px" width="32" height="32">		<path d="m243.2 0c-134.31 0-243.2 108.89-243.2 243.2s108.89 243.2 243.2 243.2 243.2-108.89 243.2-243.2c-0.01-134.34-108.9-243.2-243.2-243.2zm120.99 188.6l0.182 7.752c0 79.16-60.221 170.36-170.36 170.36-33.804 0-65.268-9.91-91.776-26.904 4.682 0.547 9.454 0.851 14.288 0.851 28.059 0 53.868-9.576 74.357-25.627-26.204-0.486-48.305-17.814-55.935-41.586 3.678 0.699 7.387 1.034 11.278 1.034 5.472 0 10.761-0.699 15.777-2.067-27.39-5.533-48.031-29.7-48.031-58.701v-0.76c8.086 4.499 17.297 7.174 27.116 7.509-16.051-10.731-26.63-29.062-26.63-49.825 0-10.974 2.949-21.249 8.086-30.095 29.518 36.236 73.658 60.069 123.42 62.562-1.034-4.378-1.55-8.968-1.55-13.649 0-33.044 26.812-59.857 59.887-59.857 17.206 0 32.771 7.265 43.714 18.908 13.619-2.706 26.448-7.691 38.03-14.531-4.469 13.984-13.953 25.718-26.326 33.135 12.069-1.429 23.651-4.682 34.382-9.424-8.03 12-18.21 22.55-29.91 30.94z" fill="#010002"/></svg></svg>
